<svg xmlns="http://www.w3.org/2000/svg" xmlns:xlink="http://www.w3.org/1999/xlink" width="500" zoomAndPan="magnify" viewBox="0 0 375.12 383.03998" height="500" preserveAspectRatio="xMidYMid meet" version="1.0"><defs><g/><clipPath id="4c2347bf1b"><path d="M 157.136719 130.921875 L 217 130.921875 L 217 183.289062 L 157.136719 183.289062 Z M 157.136719 130.921875 " clip-rule="nonzero"/></clipPath><clipPath id="4de0a90795"><path d="M 187.0625 130.921875 L 216.984375 183.289062 L 157.136719 183.289062 Z M 187.0625 130.921875 " clip-rule="nonzero"/></clipPath><clipPath id="86e45d9e01"><path d="M 0.136719 0.921875 L 60 0.921875 L 60 53.289062 L 0.136719 53.289062 Z M 0.136719 0.921875 " clip-rule="nonzero"/></clipPath><clipPath id="7f249f9bd8"><path d="M 30.0625 0.921875 L 59.984375 53.289062 L 0.136719 53.289062 Z M 30.0625 0.921875 " clip-rule="nonzero"/></clipPath><clipPath id="270625cf89"><rect x="0" width="60" y="0" height="54"/></clipPath><clipPath id="3351dc2bb0"><path d="M 168.359375 168.328125 L 205.765625 168.328125 L 205.765625 175.808594 L 168.359375 175.808594 Z M 168.359375 168.328125 " clip-rule="nonzero"/></clipPath><clipPath id="78e9043c22"><path d="M 0.359375 0.328125 L 37.765625 0.328125 L 37.765625 7.808594 L 0.359375 7.808594 Z M 0.359375 0.328125 " clip-rule="nonzero"/></clipPath><clipPath id="06ad9620fc"><rect x="0" width="38" y="0" height="8"/></clipPath></defs><g fill="#222326" fill-opacity="1"><g transform="translate(24.589549, 253.562976)"><g><path d="M 10.578125 -42.296875 L 35.953125 -42.296875 C 37.503906 -42.296875 38.921875 -41.914062 40.203125 -41.15625 C 41.492188 -40.40625 42.519531 -39.382812 43.28125 -38.09375 C 44.039062 -36.8125 44.421875 -35.394531 44.421875 -33.84375 L 44.421875 0 L 35.953125 0 L 35.953125 -16.921875 L 10.578125 -16.921875 L 10.578125 0 L 2.109375 0 L 2.109375 -33.84375 C 2.109375 -35.394531 2.488281 -36.8125 3.25 -38.09375 C 4.007812 -39.382812 5.03125 -40.40625 6.3125 -41.15625 C 7.601562 -41.914062 9.023438 -42.296875 10.578125 -42.296875 Z M 10.578125 -33.84375 L 10.578125 -25.375 L 35.953125 -25.375 L 35.953125 -33.84375 Z M 10.578125 -33.84375 "/></g></g></g><g fill="#222326" fill-opacity="1"><g transform="translate(71.116318, 253.562976)"><g><path d="M 44.421875 -42.296875 L 44.421875 -33.84375 L 27.5 -33.84375 L 27.5 0 L 19.03125 0 L 19.03125 -33.84375 L 2.109375 -33.84375 L 2.109375 -42.296875 Z M 44.421875 -42.296875 "/></g></g></g><g fill="#222326" fill-opacity="1"><g transform="translate(117.643088, 253.562976)"><g><path d="M 44.421875 0 L 10.578125 0 C 9.023438 0 7.601562 -0.378906 6.3125 -1.140625 C 5.03125 -1.898438 4.007812 -2.921875 3.25 -4.203125 C 2.488281 -5.492188 2.109375 -6.910156 2.109375 -8.453125 L 2.109375 -42.296875 L 10.578125 -42.296875 L 10.578125 -8.453125 L 44.421875 -8.453125 Z M 44.421875 0 "/></g></g></g><g fill="#222326" fill-opacity="1"><g transform="translate(164.169858, 253.562976)"><g><path d="M 10.578125 -42.296875 L 35.953125 -42.296875 C 37.503906 -42.296875 38.921875 -41.914062 40.203125 -41.15625 C 41.492188 -40.40625 42.519531 -39.382812 43.28125 -38.09375 C 44.039062 -36.8125 44.421875 -35.394531 44.421875 -33.84375 L 44.421875 0 L 35.953125 0 L 35.953125 -16.921875 L 10.578125 -16.921875 L 10.578125 0 L 2.109375 0 L 2.109375 -33.84375 C 2.109375 -35.394531 2.488281 -36.8125 3.25 -38.09375 C 4.007812 -39.382812 5.03125 -40.40625 6.3125 -41.15625 C 7.601562 -41.914062 9.023438 -42.296875 10.578125 -42.296875 Z M 10.578125 -33.84375 L 10.578125 -25.375 L 35.953125 -25.375 L 35.953125 -33.84375 Z M 10.578125 -33.84375 "/></g></g></g><g fill="#222326" fill-opacity="1"><g transform="translate(210.696628, 253.562976)"><g><path d="M 44.421875 -42.296875 L 44.421875 -33.84375 L 10.578125 -33.84375 L 10.578125 -25.375 L 35.953125 -25.375 C 37.503906 -25.375 38.921875 -24.992188 40.203125 -24.234375 C 41.492188 -23.484375 42.519531 -22.460938 43.28125 -21.171875 C 44.039062 -19.890625 44.421875 -18.472656 44.421875 -16.921875 L 44.421875 -8.453125 C 44.421875 -6.910156 44.039062 -5.492188 43.28125 -4.203125 C 42.519531 -2.921875 41.492188 -1.898438 40.203125 -1.140625 C 38.921875 -0.378906 37.503906 0 35.953125 0 L 2.109375 0 L 2.109375 -8.453125 L 35.953125 -8.453125 L 35.953125 -16.921875 L 10.578125 -16.921875 C 9.023438 -16.921875 7.601562 -17.296875 6.3125 -18.046875 C 5.03125 -18.804688 4.007812 -19.828125 3.25 -21.109375 C 2.488281 -22.398438 2.109375 -23.820312 2.109375 -25.375 L 2.109375 -33.84375 C 2.109375 -35.394531 2.488281 -36.8125 3.25 -38.09375 C 4.007812 -39.382812 5.03125 -40.40625 6.3125 -41.15625 C 7.601562 -41.914062 9.023438 -42.296875 10.578125 -42.296875 Z M 44.421875 -42.296875 "/></g></g></g><g fill="#222326" fill-opacity="1"><g transform="translate(257.223387, 253.562976)"><g><path d="M 35.953125 0 L 10.578125 0 C 9.023438 0 7.601562 -0.378906 6.3125 -1.140625 C 5.03125 -1.898438 4.007812 -2.921875 3.25 -4.203125 C 2.488281 -5.492188 2.109375 -6.910156 2.109375 -8.453125 L 2.109375 -33.84375 C 2.109375 -35.394531 2.488281 -36.8125 3.25 -38.09375 C 4.007812 -39.382812 5.03125 -40.40625 6.3125 -41.15625 C 7.601562 -41.914062 9.023438 -42.296875 10.578125 -42.296875 L 35.953125 -42.296875 C 37.503906 -42.296875 38.921875 -41.914062 40.203125 -41.15625 C 41.492188 -40.40625 42.519531 -39.382812 43.28125 -38.09375 C 44.039062 -36.8125 44.421875 -35.394531 44.421875 -33.84375 L 44.421875 -8.453125 C 44.421875 -6.941406 44.039062 -5.539062 43.28125 -4.25 C 42.519531 -2.96875 41.503906 -1.9375 40.234375 -1.15625 C 38.960938 -0.382812 37.535156 0 35.953125 0 Z M 10.578125 -33.84375 L 10.578125 -8.453125 L 35.953125 -8.453125 L 35.953125 -33.84375 Z M 10.578125 -33.84375 "/></g></g></g><g fill="#222326" fill-opacity="1"><g transform="translate(303.750169, 253.562976)"><g><path d="M 44.421875 -42.296875 L 44.421875 -33.84375 L 10.578125 -33.84375 L 10.578125 -25.375 L 35.953125 -25.375 C 37.503906 -25.375 38.921875 -24.992188 40.203125 -24.234375 C 41.492188 -23.484375 42.519531 -22.460938 43.28125 -21.171875 C 44.039062 -19.890625 44.421875 -18.472656 44.421875 -16.921875 L 44.421875 -8.453125 C 44.421875 -6.910156 44.039062 -5.492188 43.28125 -4.203125 C 42.519531 -2.921875 41.492188 -1.898438 40.203125 -1.140625 C 38.921875 -0.378906 37.503906 0 35.953125 0 L 2.109375 0 L 2.109375 -8.453125 L 35.953125 -8.453125 L 35.953125 -16.921875 L 10.578125 -16.921875 C 9.023438 -16.921875 7.601562 -17.296875 6.3125 -18.046875 C 5.03125 -18.804688 4.007812 -19.828125 3.25 -21.109375 C 2.488281 -22.398438 2.109375 -23.820312 2.109375 -25.375 L 2.109375 -33.84375 C 2.109375 -35.394531 2.488281 -36.8125 3.25 -38.09375 C 4.007812 -39.382812 5.03125 -40.40625 6.3125 -41.15625 C 7.601562 -41.914062 9.023438 -42.296875 10.578125 -42.296875 Z M 44.421875 -42.296875 "/></g></g></g><g clip-path="url(#4c2347bf1b)"><g clip-path="url(#4de0a90795)"><g transform="matrix(1, 0, 0, 1, 157, 130)"><g clip-path="url(#270625cf89)"><g clip-path="url(#86e45d9e01)"><g clip-path="url(#7f249f9bd8)"><path fill="#222326" d="M 0.136719 0.921875 L 60.074219 0.921875 L 60.074219 53.289062 L 0.136719 53.289062 Z M 0.136719 0.921875 " fill-opacity="1" fill-rule="nonzero"/></g></g></g></g></g></g><g clip-path="url(#3351dc2bb0)"><g transform="matrix(1, 0, 0, 1, 168, 168)"><g clip-path="url(#06ad9620fc)"><g clip-path="url(#78e9043c22)"><path fill="#ffffff" d="M 0.359375 0.328125 L 37.765625 0.328125 L 37.765625 7.808594 L 0.359375 7.808594 Z M 0.359375 0.328125 " fill-opacity="1" fill-rule="nonzero"/></g></g></g></g></svg>